Coordinates
version=1
nRows=14
nColumns=36
inDegrees=yes

Units are S.I. units (second, meters, Newtons, ...)
If the header above contains a line with 'inDegrees', this indicates whether rotational values are in degrees (yes) or radians (no).

endheader
time	pelvis_tilt	pelvis_list	pelvis_rotation	pelvis_tx	pelvis_ty	pelvis_tz	hip_flexion_r	hip_adduction_r	hip_rotation_r	knee_angle_r	knee_angle_r_beta	ankle_angle_r	subtalar_angle_r	mtp_angle_r	hip_flexion_l	hip_adduction_l	hip_rotation_l	knee_angle_l	knee_angle_l_beta	ankle_angle_l	subtalar_angle_l	mtp_angle_l	lumbar_extension	lumbar_bending	lumbar_rotation	arm_flex_r	arm_add_r	arm_rot_r	elbow_flex_r	pro_sup_r	arm_flex_l	arm_add_l	arm_rot_l	elbow_flex_l	pro_sup_l
     10.58000000	     -1.01796589	      0.79000468	      0.57308073	     -0.52918345	      0.57779520	     -0.60592660	     83.62407818	     -6.26440121	      7.12525540	     91.33190371	      1.59404243	     15.26162451	     -9.05856161	     -7.49999987	     83.56770809	     -9.48322839	     -2.94338201	     90.47073887	      1.57901227	     14.67651642	     -2.58481342	     -7.49999987	    -38.23527643	      1.09697951	     -4.63319975	     59.33799671	    -13.15996681	     15.99240784	    118.95212174	     98.30705591	     57.92316155	    -10.83597729	     14.81321305	    113.89621013	     94.94893447
     10.59000000	     -0.05364877	      0.55760824	      0.80466716	     -0.53269111	      0.57810921	     -0.60654870	     82.75431398	     -6.54776835	      6.81903926	     91.19556135	      1.59166281	     14.97517892	     -8.95213091	     -7.49999987	     82.89483925	     -9.28767502	     -2.70202898	     90.37863753	      1.57740480	     14.39722154	     -2.51034839	     -7.49999987	    -38.38276035	      1.51342972	     -4.53304020	     57.71378452	    -13.17441088	     15.65957831	    119.53243138	     98.30510621	     56.16074897	    -10.36472494	     13.68316417	    114.70691568	     94.93025698
     10.60000000	      0.91691357	      0.30689863	      1.02775349	     -0.53615671	      0.57911415	     -0.60711959	     81.75491916	     -6.79469533	      6.48862752	     90.95961406	      1.58754475	     14.77198089	     -8.83930313	     -7.49999987	     82.11006834	     -9.11761848	     -2.46576074	     90.18658181	      1.57405279	     14.18521260	     -2.44375518	     -7.49999987	    -38.58713235	      1.95416441	     -4.46568946	     55.98911428	    -13.10212322	     15.27902973	    120.07260810	     98.30419734	     54.24679765	     -9.95452581	     12.47826264	    115.60616598	     94.92022289
     10.61000000	      1.88412023	      0.10962485	      1.27344349	     -0.53956564	      0.58053500	     -0.60779219	     80.72412773	     -7.14784489	      6.11719247	     90.68732264	      1.58279237	     14.56957576	     -8.65321252	     -7.49999987	     81.23207829	     -8.91006982	     -2.29868008	     89.90502018	      1.56913862	     13.99397639	     -2.41051019	     -7.49999987	    -38.79671915	      2.32257077	     -4.47005350	     54.12458542	    -12.99480906	     14.77003335	    120.57766696	     98.31156502	     52.28858901	     -9.52790927	     11.32218242	    116.48662795	     94.94472764
     10.62000000	      2.82802847	      0.01342651	      1.51832480	     -0.54287825	      0.58212561	     -0.60853789	     79.73663573	     -7.57660744	      5.76652279	     90.41845220	      1.57809970	     14.33850908	     -8.39764990	     -7.49999987	     80.29799845	     -8.67768532	     -2.25879898	     89.56554112	      1.56321359	     13.76331201	     -2.38227868	     -7.49999987	    -38.97919138	      2.57033154	     -4.48038681	     52.11506845	    -12.93528831	     14.15473306	    121.08148901	     98.32536984	     50.34488309	     -9.03546605	     10.27785316	    117.28653172	     94.99774248
     10.63000000	      3.77787243	     -0.00632848	      1.67255936	     -0.54612346	      0.58370399	     -0.60902478	     78.74623204	     -7.90656138	      5.53661505	     90.14230142	      1.57327996	     14.17040094	     -8.13863612	     -7.49999987	     79.33545608	     -8.57012038	     -2.30176160	     89.23561180	      1.55745524	     13.50441222	     -2.41772606	     -7.49999987	    -39.14695650	      2.69440258	     -4.42831029	     50.04842261	    -12.79416075	     13.47544033	    121.62926154	     98.33470998	     48.34374891	     -8.58364638	      9.18469328	    118.05278430	     95.04435935
     10.64000000	      4.70582874	      0.05834607	      1.74496757	     -0.54938294	      0.58513563	     -0.60939195	     77.78568393	     -8.12158060	      5.46051306	     89.85130576	      1.56820112	     14.08617575	     -7.93996595	     -7.49999987	     78.36170888	     -8.50198249	     -2.42069845	     88.90651751	      1.55171146	     13.26299074	     -2.54265245	     -7.49999987	    -39.28704697	      2.71388644	     -4.37058784	     47.98234370	    -12.61253922	     12.80667479	    122.12290253	     98.33126402	     46.31361163	     -8.20377587	      8.10139829	    118.79920483	     95.07247551
     10.65000000	      5.60657517	      0.19219532	      1.77406367	     -0.55255355	      0.58629312	     -0.60966591	     76.91168164	     -8.33972943	      5.44151805	     89.60608220	      1.56392116	     13.98971873	     -7.74601818	     -7.49999987	     77.41297112	     -8.44072476	     -2.61476289	     88.60389220	      1.54642965	     13.02478090	     -2.68428064	     -7.49999987	    -39.31812152	      2.64051119	     -4.33069486	     45.93491503	    -12.45093686	     12.22835272	    122.50423412	     98.32278299	     44.30376853	     -7.90329746	      7.09145651	    119.43737400	     95.07426078
     10.66000000	      6.48877835	      0.36358040	      1.78975210	     -0.55556669	      0.58719431	     -0.60990919	     76.14629517	     -8.55414454	      5.48345581	     89.47148192	      1.56157195	     13.78393061	     -7.48471155	     -7.49999987	     76.48897120	     -8.35913367	     -2.82709777	     88.35457895	      1.54207831	     12.76316998	     -2.76801267	     -7.49999987	    -39.32216023	      2.51644507	     -4.33779533	     43.87842292	    -12.25044453	     11.50629471	    122.90793328	     98.31072667	     42.26954778	     -7.52401406	      5.95845184	    120.07237324	     95.05378612
     10.67000000	      7.28118700	      0.52851855	      1.75391988	     -0.55828951	      0.58766936	     -0.61014411	     75.52674617	     -8.76904841	      5.49594809	     89.36257430	      1.55967115	     13.53423581	     -7.25556422	     -7.49999987	     75.70581036	     -8.34039719	     -3.04928252	     88.18818818	      1.53917425	     12.55284474	     -2.80962806	     -7.49999987	    -39.16921122	      2.40709907	     -4.25346326	     41.81149324	    -12.06406450	     10.89342710	    123.21261996	     98.29011834	     40.23130627	     -7.25624671	      5.04320590	    120.62541006	     95.03453868
     10.68000000	      8.00042953	      0.69653581	      1.70226106	     -0.56089933	      0.58769964	     -0.61041718	     74.97475512	     -8.87458686	      5.61052330	     89.26302396	      1.55793367	     13.26999395	     -7.09664814	     -7.49999987	     75.04469665	     -8.29544577	     -3.26861056	     88.08672013	      1.53740329	     12.38280303	     -2.89358644	     -7.49999987	    -38.90540714	      2.26138790	     -4.18545531	     39.79499251	    -11.84287222	     10.23708523	    123.54401937	     98.25945626	     38.21683878	     -6.95824786	      4.07331562	    121.17143600	     95.00980218
     10.69000000	      8.67369039	      0.88706890	      1.64643547	     -0.56334688	      0.58740829	     -0.61097339	     74.49229834	     -9.01932191	      5.77749036	     89.17501313	      1.55639759	     12.95634385	     -7.00203996	     -7.49999987	     74.46152243	     -8.19751905	     -3.47860513	     88.04582139	      1.53668948	     12.24693508	     -3.01352749	     -7.49999987	    -38.59309123	      2.14169550	     -4.11803316	     37.85253580	    -11.73961878	      9.69084647	    123.88249739	     98.23470371	     36.26039369	     -6.63310369	      3.10416496	    121.66300133	     94.98123330
     10.70000000	      9.33612198	      1.04744486	      1.60444087	     -0.56559627	      0.58696581	     -0.61175335	     74.05743182	     -9.23830374	      5.87552431	     89.13534411	      1.55570523	     12.50863263	     -6.90579401	     -7.49999987	     73.92314507	     -8.07157576	     -3.65838962	     88.06219613	      1.53697527	     12.09239199	     -3.16675977	     -7.49999987	    -38.27004937	      2.08621678	     -4.08261920	     35.99474959	    -11.68997336	      9.20697531	    124.24594559	     98.21864641	     34.31609696	     -6.32556145	      2.14707697	    122.15203396	     94.94497984
     10.71000000	     10.03321343	      1.11128869	      1.55257127	     -0.56767344	      0.58655598	     -0.61243646	     73.56912537	     -9.41317816	      5.86104435	     89.09994675	      1.55508743	     12.02548600	     -6.80466706	     -7.49999987	     73.38065425	     -8.02124903	     -3.74653200	     88.11883317	      1.53796377	     11.88552560	     -3.27991804	     -7.49999987	    -38.01007087	      2.10144980	     -4.01907973	     34.25206832	    -11.66246692	      8.79930983	    124.57526913	     98.22151152	     32.42647199	     -6.07029908	      1.26538111	    122.66110337	     94.92207998
